<svg width="25" height="25" viewBox="0 0 25 25" fill="none" xmlns="http://www.w3.org/2000/svg">
<path fill-rule="evenodd" clip-rule="evenodd" d="M17.0052 15.5198L22.6093 21.124C22.8063 21.3211 22.9169 21.5884 22.9168 21.8671C22.9167 22.1457 22.8059 22.4129 22.6088 22.6099C22.4117 22.8069 22.1444 22.9175 21.8657 22.9174C21.5871 22.9173 21.3199 22.8065 21.1229 22.6094L15.5187 17.0052C13.8434 18.3028 11.7367 18.9134 9.62718 18.7129C7.51764 18.5123 5.56374 17.5157 4.16296 15.9257C2.76218 14.3356 2.01974 12.2717 2.08668 10.1537C2.15362 8.03573 3.02491 6.02279 4.5233 4.5244C6.02169 3.02601 8.03463 2.15472 10.1526 2.08778C12.2706 2.02084 14.3345 2.76328 15.9246 4.16406C17.5146 5.56484 18.5112 7.51874 18.7118 9.62828C18.9123 11.7378 18.3017 13.8445 17.0041 15.5198H17.0052ZM10.4166 16.6667C12.0742 16.6667 13.6639 16.0082 14.836 14.8361C16.0081 13.664 16.6666 12.0743 16.6666 10.4167C16.6666 8.75908 16.0081 7.16937 14.836 5.99727C13.6639 4.82517 12.0742 4.16669 10.4166 4.16669C8.75902 4.16669 7.16931 4.82517 5.99721 5.99727C4.82511 7.16937 4.16663 8.75908 4.16663 10.4167C4.16663 12.0743 4.82511 13.664 5.99721 14.8361C7.16931 16.0082 8.75902 16.6667 10.4166 16.6667Z" fill="#C4C4C4"/>
</svg>
